<svg width="18" height="18" viewBox="0.09271240234375 0.0926513671875 17.8145751953125 17.814697265625" fill="none" xmlns="http://www.w3.org/2000/svg">
<path d="M17.6692 14.0998L13.5619 10.3654C13.3677 10.1889 13.1126 10.0948 12.8504 10.1029C12.5881 10.111 12.3393 10.2207 12.1564 10.4088L9.73854 12.8954C9.15654 12.7843 7.9865 12.4195 6.7821 11.2182C5.5777 10.0128 5.21295 8.83969 5.10483 8.26174L7.58941 5.84284C7.77776 5.66009 7.88762 5.41122 7.89573 5.14891C7.90384 4.88659 7.80956 4.63141 7.63286 4.43737L3.89943 0.331101C3.72265 0.136454 3.47696 0.0183856 3.21453 0.00197209C2.9521 -0.0144414 2.69361 0.0720925 2.49396 0.243196L0.301385 2.12355C0.126697 2.29887 0.0224324 2.53221 0.00836811 2.7793C-0.00678792 3.0319 -0.295763 9.0155 4.344 13.6573C8.39167 17.7039 13.4619 18 14.8582 18C15.0623 18 15.1876 17.9939 15.221 17.9919C15.468 17.9781 15.7012 17.8734 15.8757 17.6979L17.7551 15.5043C17.9268 15.3053 18.014 15.047 17.998 14.7846C17.9819 14.5222 17.8639 14.2764 17.6692 14.0998Z" fill="#324CFE"/>
</svg>
